# xmcd
#
# Track frame offsets:
#	150
#	15634
#	32640
#	51687
#	67629
#	81878
#	89156
#	100067
#	114816
#	138532
#
# Disc length: 2112 seconds
#
# Revision: 0
# Processed by: cddbd v1.5.2PL0 Copyright (c) Steve Scherf et al.
# Submitted via: EasyCDDAExtractor 16.0.0.1
#
DISCID=7e083e0a
DTITLE=Bergen Blues Band
DYEAR=1980
DGENRE=Blues
TTITLE0=Jump 'n Shout 'n Dance
TTITLE1=Truckdriver
TTITLE2=Airport Blues
TTITLE3=Sixteen Months Of Hard Work
TTITLE4=Brand New Microphone
TTITLE5=Hungry John
TTITLE6=Depression
TTITLE7=Hey Mama
TTITLE8=Talkin' 'bout Blues
TTITLE9=Behind My Back
EXTD=
EXTT0=
EXTT1=
EXTT2=
EXTT3=
EXTT4=
EXTT5=
EXTT6=
EXTT7=
EXTT8=
EXTT9=
PLAYORDER=
